<mxfile host="app.diagrams.net" agent="Mozilla/5.0 (Windows NT 10.0; Win64; x64) AppleWebKit/537.36 (KHTML, like Gecko) Chrome/132.0.0.0 Safari/537.36" version="26.0.11">
  <diagram name="Страница — 1" id="QKCJFVxiNmbFHVc74E6L">
    <mxGraphModel dx="875" dy="464" grid="1" gridSize="10" guides="1" tooltips="1" connect="1" arrows="1" fold="1" page="1" pageScale="1" pageWidth="827" pageHeight="1169" math="0" shadow="0">
      <root>
        <mxCell id="0" />
        <mxCell id="1" parent="0" />
        <mxCell id="nqt-i7BVtpRC-XTgqrte-1" value="" style="ellipse;whiteSpace=wrap;html=1;aspect=fixed;strokeColor=#757575;" parent="1" vertex="1">
          <mxGeometry x="562.5" y="567" width="35" height="35" as="geometry" />
        </mxCell>
        <mxCell id="nqt-i7BVtpRC-XTgqrte-2" value="" style="ellipse;whiteSpace=wrap;html=1;aspect=fixed;strokeColor=#757575;fillColor=#757575;" parent="1" vertex="1">
          <mxGeometry x="570.25" y="574.75" width="19.5" height="19.5" as="geometry" />
        </mxCell>
        <mxCell id="nqt-i7BVtpRC-XTgqrte-12" value="" style="edgeStyle=orthogonalEdgeStyle;rounded=0;orthogonalLoop=1;jettySize=auto;html=1;strokeColor=#757575;" parent="1" source="nqt-i7BVtpRC-XTgqrte-3" target="nqt-i7BVtpRC-XTgqrte-6" edge="1">
          <mxGeometry relative="1" as="geometry" />
        </mxCell>
        <mxCell id="nqt-i7BVtpRC-XTgqrte-3" value="int wyborGranic = 0" style="rounded=0;whiteSpace=wrap;html=1;strokeColor=#757575;" parent="1" vertex="1">
          <mxGeometry x="320" y="120" width="120" height="40" as="geometry" />
        </mxCell>
        <mxCell id="nqt-i7BVtpRC-XTgqrte-11" style="edgeStyle=orthogonalEdgeStyle;rounded=0;orthogonalLoop=1;jettySize=auto;html=1;exitX=0.5;exitY=1;exitDx=0;exitDy=0;strokeColor=#757575;" parent="1" source="nqt-i7BVtpRC-XTgqrte-6" target="nqt-i7BVtpRC-XTgqrte-7" edge="1">
          <mxGeometry relative="1" as="geometry" />
        </mxCell>
        <mxCell id="nqt-i7BVtpRC-XTgqrte-6" value="wyswietlMenuGranic()" style="shape=process;whiteSpace=wrap;html=1;backgroundOutline=1;strokeColor=#757575;" parent="1" vertex="1">
          <mxGeometry x="300" y="200" width="160" height="40" as="geometry" />
        </mxCell>
        <mxCell id="nqt-i7BVtpRC-XTgqrte-10" style="edgeStyle=orthogonalEdgeStyle;rounded=0;orthogonalLoop=1;jettySize=auto;html=1;exitX=0.5;exitY=1;exitDx=0;exitDy=0;entryX=0.5;entryY=0;entryDx=0;entryDy=0;strokeColor=#757575;" parent="1" source="nqt-i7BVtpRC-XTgqrte-7" target="nqt-i7BVtpRC-XTgqrte-8" edge="1">
          <mxGeometry relative="1" as="geometry" />
        </mxCell>
        <mxCell id="nqt-i7BVtpRC-XTgqrte-7" value="Twój wybór:" style="shape=parallelogram;perimeter=parallelogramPerimeter;whiteSpace=wrap;html=1;fixedSize=1;strokeColor=#757575;" parent="1" vertex="1">
          <mxGeometry x="295" y="280" width="170" height="40" as="geometry" />
        </mxCell>
        <mxCell id="nqt-i7BVtpRC-XTgqrte-14" style="edgeStyle=orthogonalEdgeStyle;rounded=0;orthogonalLoop=1;jettySize=auto;html=1;exitX=0.5;exitY=1;exitDx=0;exitDy=0;entryX=0.5;entryY=0;entryDx=0;entryDy=0;strokeColor=#757575;" parent="1" source="nqt-i7BVtpRC-XTgqrte-8" target="nqt-i7BVtpRC-XTgqrte-9" edge="1">
          <mxGeometry relative="1" as="geometry" />
        </mxCell>
        <mxCell id="nqt-i7BVtpRC-XTgqrte-8" value="cin &amp;gt;&amp;gt; wyborFunkcji" style="shape=parallelogram;perimeter=parallelogramPerimeter;whiteSpace=wrap;html=1;fixedSize=1;strokeColor=#757575;" parent="1" vertex="1">
          <mxGeometry x="295" y="360" width="170" height="40" as="geometry" />
        </mxCell>
        <mxCell id="r1O5XjH7Dip_zGiXYmBZ-2" style="edgeStyle=orthogonalEdgeStyle;rounded=0;orthogonalLoop=1;jettySize=auto;html=1;exitX=1;exitY=0.5;exitDx=0;exitDy=0;entryX=0.5;entryY=0;entryDx=0;entryDy=0;strokeColor=#757575;" edge="1" parent="1" source="nqt-i7BVtpRC-XTgqrte-9" target="nqt-i7BVtpRC-XTgqrte-18">
          <mxGeometry relative="1" as="geometry" />
        </mxCell>
        <mxCell id="r1O5XjH7Dip_zGiXYmBZ-3" style="edgeStyle=orthogonalEdgeStyle;rounded=0;orthogonalLoop=1;jettySize=auto;html=1;exitX=0.5;exitY=1;exitDx=0;exitDy=0;strokeColor=#757575;" edge="1" parent="1" source="nqt-i7BVtpRC-XTgqrte-9" target="nqt-i7BVtpRC-XTgqrte-16">
          <mxGeometry relative="1" as="geometry" />
        </mxCell>
        <mxCell id="nqt-i7BVtpRC-XTgqrte-9" value="wyborGranic != 1 &amp;amp;&amp;amp; wyborGranic != 2" style="rhombus;whiteSpace=wrap;html=1;strokeColor=#757575;" parent="1" vertex="1">
          <mxGeometry x="240" y="440" width="280" height="80" as="geometry" />
        </mxCell>
        <mxCell id="nqt-i7BVtpRC-XTgqrte-16" value="cout &amp;lt;&amp;lt; &quot; Nieprawidłowy wybór. Spróbuj ponownie.&quot;" style="shape=parallelogram;perimeter=parallelogramPerimeter;whiteSpace=wrap;html=1;fixedSize=1;strokeColor=#757575;" parent="1" vertex="1">
          <mxGeometry x="275" y="564" width="210" height="60" as="geometry" />
        </mxCell>
        <mxCell id="nqt-i7BVtpRC-XTgqrte-22" style="edgeStyle=orthogonalEdgeStyle;rounded=0;orthogonalLoop=1;jettySize=auto;html=1;exitX=0.5;exitY=1;exitDx=0;exitDy=0;entryX=0.5;entryY=0;entryDx=0;entryDy=0;strokeColor=#757575;" parent="1" source="nqt-i7BVtpRC-XTgqrte-18" target="nqt-i7BVtpRC-XTgqrte-1" edge="1">
          <mxGeometry relative="1" as="geometry" />
        </mxCell>
        <mxCell id="nqt-i7BVtpRC-XTgqrte-18" value="return wyborGranic" style="rounded=0;whiteSpace=wrap;html=1;strokeColor=#757575;" parent="1" vertex="1">
          <mxGeometry x="520" y="520" width="120" height="30" as="geometry" />
        </mxCell>
        <mxCell id="nqt-i7BVtpRC-XTgqrte-21" style="edgeStyle=orthogonalEdgeStyle;rounded=0;orthogonalLoop=1;jettySize=auto;html=1;exitX=0.5;exitY=1;exitDx=0;exitDy=0;entryX=0.5;entryY=0;entryDx=0;entryDy=0;strokeColor=#757575;" parent="1" source="nqt-i7BVtpRC-XTgqrte-20" target="nqt-i7BVtpRC-XTgqrte-3" edge="1">
          <mxGeometry relative="1" as="geometry" />
        </mxCell>
        <mxCell id="nqt-i7BVtpRC-XTgqrte-20" value="" style="ellipse;whiteSpace=wrap;html=1;aspect=fixed;fillColor=#757575;strokeColor=#757575;" parent="1" vertex="1">
          <mxGeometry x="361.5" y="60" width="37" height="37" as="geometry" />
        </mxCell>
        <mxCell id="r1O5XjH7Dip_zGiXYmBZ-5" value="" style="endArrow=none;html=1;rounded=0;strokeColor=#757575;" edge="1" parent="1">
          <mxGeometry width="50" height="50" relative="1" as="geometry">
            <mxPoint x="200" y="590" as="sourcePoint" />
            <mxPoint x="290" y="590" as="targetPoint" />
          </mxGeometry>
        </mxCell>
        <mxCell id="r1O5XjH7Dip_zGiXYmBZ-6" value="" style="endArrow=none;html=1;rounded=0;strokeColor=#757575;" edge="1" parent="1">
          <mxGeometry width="50" height="50" relative="1" as="geometry">
            <mxPoint x="200" y="590" as="sourcePoint" />
            <mxPoint x="200" y="180" as="targetPoint" />
          </mxGeometry>
        </mxCell>
        <mxCell id="r1O5XjH7Dip_zGiXYmBZ-7" value="" style="endArrow=classic;html=1;rounded=0;strokeColor=#757575;" edge="1" parent="1">
          <mxGeometry width="50" height="50" relative="1" as="geometry">
            <mxPoint x="200" y="180" as="sourcePoint" />
            <mxPoint x="380" y="180" as="targetPoint" />
          </mxGeometry>
        </mxCell>
      </root>
    </mxGraphModel>
  </diagram>
</mxfile>
